<?plantuml 1.2026.2?><svg xmlns="http://www.w3.org/2000/svg" xmlns:xlink="http://www.w3.org/1999/xlink" contentStyleType="text/css" data-diagram-type="DESCRIPTION" height="750px" preserveAspectRatio="none" style="width:3334px;height:750px;background:#FFFFFF;" version="1.1" viewBox="0 0 3334 750" width="3334px" zoomAndPan="magnify"><title>zkSEC C4-style Architecture</title><defs/><g><g class="title" data-source-line="9"><text fill="#000000" font-family="sans-serif" font-size="14" font-weight="bold" lengthAdjust="spacing" textLength="190.4132" x="1564.9999" y="24.9659">zkSEC C4-style Architecture</text></g><!--entity Operator--><g class="entity" data-qualified-name="Operator" data-source-line="16" id="ent0002"><ellipse cx="98.7798" cy="281.5679" fill="#F1F1F1" rx="8" ry="8" style="stroke:#181818;stroke-width:0.5;"/><path d="M98.7798,289.5679 L98.7798,316.5679 M85.7798,297.5679 L111.7798,297.5679 M98.7798,316.5679 L85.7798,331.5679 M98.7798,316.5679 L111.7798,331.5679" fill="none" style="stroke:#181818;stroke-width:0.5;"/><text fill="#000000" font-family="sans-serif" font-size="14" lengthAdjust="spacing" textLength="60.3818" x="43.69" y="348.0339">Operator</text><text fill="#000000" font-family="sans-serif" font-size="14" lengthAdjust="spacing" textLength="110.1796" x="43.69" y="367.1018">Human operator</text></g><!--entity Maintainer--><g class="entity" data-qualified-name="Maintainer" data-source-line="17" id="ent0003"><ellipse cx="98.7776" cy="414.5679" fill="#F1F1F1" rx="8" ry="8" style="stroke:#181818;stroke-width:0.5;"/><path d="M98.7776,422.5679 L98.7776,449.5679 M85.7776,430.5679 L111.7776,430.5679 M98.7776,449.5679 L85.7776,464.5679 M98.7776,449.5679 L111.7776,464.5679" fill="none" style="stroke:#181818;stroke-width:0.5;"/><text fill="#000000" font-family="sans-serif" font-size="14" lengthAdjust="spacing" textLength="71.6657" x="6" y="481.0339">Maintainer</text><text fill="#000000" font-family="sans-serif" font-size="14" lengthAdjust="spacing" textLength="185.5553" x="6" y="500.1018">Maintainer/authorized actor</text></g><!--entity zkSEC--><g class="entity" data-qualified-name="zkSEC" data-source-line="19" id="ent0004"><rect fill="#F1F1F1" height="77.2038" rx="2.5" ry="2.5" style="stroke:#181818;stroke-width:0.5;" width="187.2433" x="443.56" y="350.5379"/><text fill="#000000" font-family="sans-serif" font-size="14" lengthAdjust="spacing" textLength="38.3738" x="453.56" y="375.5039">zkSEC</text><text fill="#000000" font-family="sans-serif" font-size="14" lengthAdjust="spacing" textLength="132.2435" x="453.56" y="394.5718">zkSEC policy surface</text><text fill="#000000" font-family="sans-serif" font-size="14" lengthAdjust="spacing" textLength="167.2433" x="453.56" y="413.6397">(offline decision gateway)</text></g><!--entity AdjacentSystems--><g class="entity" data-qualified-name="AdjacentSystems" data-source-line="20" id="ent0005"><rect fill="#F1F1F1" height="77.2038" rx="2.5" ry="2.5" style="stroke:#181818;stroke-width:0.5;" width="212.3313" x="1726.28" y="221.5379"/><text fill="#000000" font-family="sans-serif" font-size="14" lengthAdjust="spacing" textLength="111.6216" x="1736.28" y="246.5039">AdjacentSystems</text><text fill="#000000" font-family="sans-serif" font-size="14" lengthAdjust="spacing" textLength="114.2816" x="1736.28" y="265.5718">Adjacent systems</text><text fill="#000000" font-family="sans-serif" font-size="14" lengthAdjust="spacing" textLength="192.3313" x="1736.28" y="284.6397">(kant-zk-pastebin, zos-server)</text></g><!--entity Zkperf--><g class="entity" data-qualified-name="Zkperf" data-source-line="21" id="ent0006"><rect fill="#F1F1F1" height="58.1358" rx="2.5" ry="2.5" style="stroke:#181818;stroke-width:0.5;" width="164.5494" x="1021.01" y="47.0679"/><text fill="#000000" font-family="sans-serif" font-size="14" lengthAdjust="spacing" textLength="42.5878" x="1031.01" y="72.0339">Zkperf</text><text fill="#000000" font-family="sans-serif" font-size="14" lengthAdjust="spacing" textLength="144.5494" x="1031.01" y="91.1018">zkperf witness tooling</text></g><!--entity DecisionEngine--><g class="entity" data-qualified-name="DecisionEngine" data-source-line="23" id="ent0007"><rect fill="#F1F1F1" height="96.2717" rx="2.5" ry="2.5" style="stroke:#181818;stroke-width:0.5;" width="217.6792" x="994.44" y="139.9979"/><text fill="#000000" font-family="sans-serif" font-size="14" lengthAdjust="spacing" textLength="101.0936" x="1004.44" y="164.9639">DecisionEngine</text><text fill="#000000" font-family="sans-serif" font-size="14" lengthAdjust="spacing" textLength="143.3034" x="1004.44" y="184.0318">Security policy engine</text><text fill="#000000" font-family="sans-serif" font-size="14" lengthAdjust="spacing" textLength="138.6835" x="1004.44" y="203.0997">\u2022 assess_action</text><text fill="#000000" font-family="sans-serif" font-size="14" lengthAdjust="spacing" textLength="197.6792" x="1004.44" y="222.1676">\u2022 assess_data_boundary</text></g><!--entity Contracts--><g class="entity" data-qualified-name="Contracts" data-source-line="24" id="ent0008"><rect fill="#F1F1F1" height="96.2717" rx="2.5" ry="2.5" style="stroke:#181818;stroke-width:0.5;" width="173.7754" x="1016.4" y="284.9979"/><text fill="#000000" font-family="sans-serif" font-size="14" lengthAdjust="spacing" textLength="63.1398" x="1026.4" y="309.9639">Contracts</text><text fill="#000000" font-family="sans-serif" font-size="14" lengthAdjust="spacing" textLength="117.4036" x="1026.4" y="329.0318">Adapter contracts</text><text fill="#000000" font-family="sans-serif" font-size="14" lengthAdjust="spacing" textLength="153.7754" x="1026.4" y="348.0997">\u2022 action allowlists</text><text fill="#000000" font-family="sans-serif" font-size="14" lengthAdjust="spacing" textLength="145.5574" x="1026.4" y="367.1676">\u2022 resource roots</text></g><!--entity Geometry--><g class="entity" data-qualified-name="Geometry" data-source-line="25" id="ent0009"><rect fill="#F1F1F1" height="96.2717" rx="2.5" ry="2.5" style="stroke:#181818;stroke-width:0.5;" width="280.6229" x="1692.13" y="333.9979"/><text fill="#000000" font-family="sans-serif" font-size="14" lengthAdjust="spacing" textLength="65.5197" x="1702.13" y="358.9639">Geometry</text><text fill="#000000" font-family="sans-serif" font-size="14" lengthAdjust="spacing" textLength="132.3835" x="1702.13" y="378.0318">Capability geometry</text><text fill="#000000" font-family="sans-serif" font-size="14" lengthAdjust="spacing" textLength="209.3552" x="1702.13" y="397.0997">\u2022 action capability profiles</text><text fill="#000000" font-family="sans-serif" font-size="14" lengthAdjust="spacing" textLength="260.6229" x="1702.13" y="416.1676">\u2022 channel/ring/destination checks</text></g><!--entity Admissibility--><g class="entity" data-qualified-name="Admissibility" data-source-line="26" id="ent0010"><rect fill="#F1F1F1" height="134.4075" rx="2.5" ry="2.5" style="stroke:#181818;stroke-width:0.5;" width="237.0552" x="984.76" y="415.9279"/><text fill="#000000" font-family="sans-serif" font-size="14" lengthAdjust="spacing" textLength="82.9217" x="994.76" y="440.8939">Admissibility</text><text fill="#000000" font-family="sans-serif" font-size="14" lengthAdjust="spacing" textLength="154.4054" x="994.76" y="459.9618">Transform admissibility</text><text fill="#000000" font-family="sans-serif" font-size="14" lengthAdjust="spacing" textLength="217.0552" x="994.76" y="479.0297">\u2022 proposal-only ZOS bridge</text><text fill="#000000" font-family="sans-serif" font-size="14" lengthAdjust="spacing" textLength="154.5034" x="994.76" y="498.0976">\u2022 unified detector</text><text fill="#000000" font-family="sans-serif" font-size="14" lengthAdjust="spacing" textLength="155.8194" x="994.76" y="517.1655">\u2022 ontology checks</text><text fill="#000000" font-family="sans-serif" font-size="14" lengthAdjust="spacing" textLength="145.4314" x="994.76" y="536.2334">\u2022 attack harness</text></g><!--entity Routing--><g class="entity" data-qualified-name="Routing" data-source-line="27" id="ent0011"><rect fill="#F1F1F1" height="96.2717" rx="2.5" ry="2.5" style="stroke:#181818;stroke-width:0.5;" width="229.9152" x="988.33" y="584.9979"/><text fill="#000000" font-family="sans-serif" font-size="14" lengthAdjust="spacing" textLength="51.7578" x="998.33" y="609.9639">Routing</text><text fill="#000000" font-family="sans-serif" font-size="14" lengthAdjust="spacing" textLength="136.4295" x="998.33" y="629.0318">Routing and receipts</text><text fill="#000000" font-family="sans-serif" font-size="14" lengthAdjust="spacing" textLength="209.9152" x="998.33" y="648.0997">\u2022 evaluate_adapter_action</text><text fill="#000000" font-family="sans-serif" font-size="14" lengthAdjust="spacing" textLength="143.6114" x="998.33" y="667.1676">\u2022 policy receipts</text></g><!--entity Execution--><g class="entity" data-qualified-name="Execution" data-source-line="28" id="ent0012"><rect fill="#F1F1F1" height="77.2038" rx="2.5" ry="2.5" style="stroke:#181818;stroke-width:0.5;" width="235.7111" x="1714.59" y="598.5379"/><text fill="#000000" font-family="sans-serif" font-size="14" lengthAdjust="spacing" textLength="64.2457" x="1724.59" y="623.5039">Execution</text><text fill="#000000" font-family="sans-serif" font-size="14" lengthAdjust="spacing" textLength="97.2996" x="1724.59" y="642.5718">Execution gate</text><text fill="#000000" font-family="sans-serif" font-size="14" lengthAdjust="spacing" textLength="215.7111" x="1724.59" y="661.6397">\u2022 build_execution_directive</text></g><!--entity Reporting--><g class="entity" data-qualified-name="Reporting" data-source-line="29" id="ent0013"><rect fill="#F1F1F1" height="77.2038" rx="2.5" ry="2.5" style="stroke:#181818;stroke-width:0.5;" width="223.3632" x="2480.9" y="536.5379"/><text fill="#000000" font-family="sans-serif" font-size="14" lengthAdjust="spacing" textLength="65.3938" x="2490.9" y="561.5039">Reporting</text><text fill="#000000" font-family="sans-serif" font-size="14" lengthAdjust="spacing" textLength="65.3938" x="2490.9" y="580.5718">Reporting</text><text fill="#000000" font-family="sans-serif" font-size="14" lengthAdjust="spacing" textLength="203.3632" x="2490.9" y="599.6397">\u2022 execution_audit_record</text></g><!--entity AuditStore--><g class="entity" data-qualified-name="AuditStore" data-source-line="31" id="ent0014"><path d="M3063.04,450.0379 C3063.04,440.0379 3190.2266,440.0379 3190.2266,440.0379 C3190.2266,440.0379 3317.4131,440.0379 3317.4131,450.0379 L3317.4131,516.2417 C3317.4131,526.2417 3190.2266,526.2417 3190.2266,526.2417 C3190.2266,526.2417 3063.04,526.2417 3063.04,516.2417 L3063.04,450.0379" fill="#F1F1F1" style="stroke:#181818;stroke-width:0.5;"/><path d="M3063.04,450.0379 C3063.04,460.0379 3190.2266,460.0379 3190.2266,460.0379 C3190.2266,460.0379 3317.4131,460.0379 3317.4131,450.0379" fill="none" style="stroke:#181818;stroke-width:0.5;"/><text fill="#000000" font-family="sans-serif" font-size="14" lengthAdjust="spacing" textLength="69.7617" x="3073.04" y="479.0039">AuditStore</text><text fill="#000000" font-family="sans-serif" font-size="14" lengthAdjust="spacing" textLength="95.8296" x="3073.04" y="498.0718">Evidence store</text><text fill="#000000" font-family="sans-serif" font-size="14" lengthAdjust="spacing" textLength="234.3731" x="3073.04" y="517.1397">changelog, milestones, tests, traces</text></g><g class="entity" data-qualified-name="GMN29" data-source-line="51" id="ent0030"><path d="M1619.75,159.2779 L1619.75,173.5079 L1212.36,185.9079 L1619.75,181.5079 L1619.75,186.9839 A0,0 0 0 0 1619.75,186.9839 L2045.1283,186.9839 A0,0 0 0 0 2045.1283,186.9839 L2045.1283,169.2779 L2035.1283,159.2779 L1619.75,159.2779 A0,0 0 0 0 1619.75,159.2779" fill="#FEFFDD" style="stroke:#181818;stroke-width:0.5;"/><path d="M2035.1283,159.2779 L2035.1283,169.2779 L2045.1283,169.2779 L2035.1283,159.2779" fill="#FEFFDD" style="stroke:#181818;stroke-width:0.5;"/><text fill="#000000" font-family="sans-serif" font-size="13" lengthAdjust="spacing" textLength="404.3783" x="1625.75" y="178.1749">Invariant: resource scope normalized\nand URI-like paths rejected</text></g><g class="entity" data-qualified-name="GMN32" data-source-line="55" id="ent0033"><path d="M2348.12,368.2779 L2348.12,378.1379 L1972.94,382.1379 L2348.12,386.1379 L2348.12,395.9839 A0,0 0 0 0 2348.12,395.9839 L2837.0423,395.9839 A0,0 0 0 0 2837.0423,395.9839 L2837.0423,378.2779 L2827.0423,368.2779 L2348.12,368.2779 A0,0 0 0 0 2348.12,368.2779" fill="#FEFFDD" style="stroke:#181818;stroke-width:0.5;"/><path d="M2827.0423,368.2779 L2827.0423,378.2779 L2837.0423,378.2779 L2827.0423,368.2779" fill="#FEFFDD" style="stroke:#181818;stroke-width:0.5;"/><text fill="#000000" font-family="sans-serif" font-size="13" lengthAdjust="spacing" textLength="467.9223" x="2354.12" y="387.1749">Invariant: geometry requests must stay\ninside action and adapter envelope</text></g><g class="entity" data-qualified-name="GMN35" data-source-line="59" id="ent0036"><path d="M1536.77,536.2779 L1536.77,563.9839 L2128.1194,563.9839 L2128.1194,546.2779 L2118.1194,536.2779 L1536.77,536.2779" fill="#FEFFDD" style="stroke:#181818;stroke-width:0.5;"/><path d="M2118.1194,536.2779 L2118.1194,546.2779 L2128.1194,546.2779 L2118.1194,536.2779" fill="#FEFFDD" style="stroke:#181818;stroke-width:1;"/><text fill="#000000" font-family="sans-serif" font-size="13" lengthAdjust="spacing" textLength="570.3494" x="1542.77" y="555.1749">Invariant: proposal metadata never becomes authority\nwithout explicit managed promotion</text></g><g class="entity" data-qualified-name="GMN38" data-source-line="63" id="ent0039"><path d="M2373.38,648.2779 L2373.38,650.9279 L1950.65,640.9979 L2373.38,658.9279 L2373.38,675.9839 A0,0 0 0 0 2373.38,675.9839 L2811.7714,675.9839 A0,0 0 0 0 2811.7714,675.9839 L2811.7714,658.2779 L2801.7714,648.2779 L2373.38,648.2779 A0,0 0 0 0 2373.38,648.2779" fill="#FEFFDD" style="stroke:#181818;stroke-width:0.5;"/><path d="M2801.7714,648.2779 L2801.7714,658.2779 L2811.7714,658.2779 L2801.7714,648.2779" fill="#FEFFDD" style="stroke:#181818;stroke-width:0.5;"/><text fill="#000000" font-family="sans-serif" font-size="13" lengthAdjust="spacing" textLength="417.3914" x="2379.38" y="667.1749">Invariant: high-authority actions\nrequire identity + scope + plan_ref</text></g><g class="entity" data-qualified-name="GMN41" data-source-line="67" id="ent0042"><path d="M900.8,716.2779 L900.8,743.9839 L1305.7683,743.9839 L1305.7683,726.2779 L1295.7683,716.2779 L900.8,716.2779" fill="#FEFFDD" style="stroke:#181818;stroke-width:0.5;"/><path d="M1295.7683,716.2779 L1295.7683,726.2779 L1305.7683,726.2779 L1295.7683,716.2779" fill="#FEFFDD" style="stroke:#181818;stroke-width:1;"/><text fill="#000000" font-family="sans-serif" font-size="13" lengthAdjust="spacing" textLength="383.9683" x="906.8" y="735.1749">No outbound network/process execution\nin this local surface.</text></g><!--link Operator to zkSEC--><g class="link" data-entity-1="ent0002" data-entity-2="ent0004" data-link-type="dependency" data-source-line="33" id="lnk15"><path d="M154.36,328.2979 C217.1,335.6479 323.05,348.8679 413.56,364.1379 C423.2,365.7579 427.3465,366.4623 437.3465,368.3723" fill="none" id="Operator-to-zkSEC" style="stroke:#181818;stroke-width:1;"/><polygon fill="#181818" points="443.24,369.4979,435.1502,363.8805,438.3288,368.5599,433.6494,371.7384,443.24,369.4979" style="stroke:#181818;stroke-width:1;"/><text fill="#000000" font-family="sans-serif" font-size="13" lengthAdjust="spacing" textLength="69.7971" x="282.7615" y="315.1049">CLI request</text><text fill="#000000" font-family="sans-serif" font-size="13" lengthAdjust="spacing" textLength="161.2001" x="237.06" y="332.8109">(action, resource, payload)</text></g><!--link Maintainer to zkSEC--><g class="link" data-entity-1="ent0003" data-entity-2="ent0004" data-link-type="dependency" data-source-line="34" id="lnk16"><path d="M191.79,441.2179 C265.69,430.0479 363.0675,415.3155 437.2275,404.0955" fill="none" id="Maintainer-to-zkSEC" style="stroke:#181818;stroke-width:1;"/><polygon fill="#181818" points="443.16,403.1979,433.6629,400.5893,438.2163,403.9459,434.8596,408.4992,443.16,403.1979" style="stroke:#181818;stroke-width:1;"/><text fill="#000000" font-family="sans-serif" font-size="13" lengthAdjust="spacing" textLength="81.9911" x="276.6271" y="386.5349">authorization</text><text fill="#000000" font-family="sans-serif" font-size="13" lengthAdjust="spacing" textLength="190.1252" x="222.56" y="404.2409">(actor_identity, plan_ref, scope)</text></g><!--link zkSEC to DecisionEngine--><g class="link" data-entity-1="ent0004" data-entity-2="ent0007" data-link-type="dependency" data-source-line="36" id="lnk17"><path d="M613.6,350.0979 C629.03,342.7179 645.29,335.3679 660.8,329.1379 C772.23,284.3579 898.0239,245.5268 988.3639,219.5368" fill="none" id="zkSEC-to-DecisionEngine" style="stroke:#181818;stroke-width:1;"/><polygon fill="#181818" points="994.13,217.8779,984.3749,216.5221,989.3249,219.2603,986.5867,224.2103,994.13,217.8779" style="stroke:#181818;stroke-width:1;"/><text fill="#000000" font-family="sans-serif" font-size="13" lengthAdjust="spacing" textLength="146.6011" x="692.8" y="253.0949">evaluate action contract</text></g><!--link zkSEC to Contracts--><g class="link" data-entity-1="ent0004" data-entity-2="ent0008" data-link-type="dependency" data-source-line="37" id="lnk18"><path d="M631.01,379.9179 C737.97,369.2979 906.3394,352.5911 1010.3194,342.2611" fill="none" id="zkSEC-to-Contracts" style="stroke:#181818;stroke-width:1;"/><polygon fill="#181818" points="1016.29,341.6679,1006.9386,338.5772,1011.3145,342.1622,1007.7295,346.5381,1016.29,341.6679" style="stroke:#181818;stroke-width:1;"/><text fill="#000000" font-family="sans-serif" font-size="13" lengthAdjust="spacing" textLength="138.5541" x="696.8" y="352.0149">resolve adapter profile</text></g><!--link Contracts to Geometry--><g class="link" data-entity-1="ent0008" data-entity-2="ent0009" data-link-type="dependency" data-source-line="38" id="lnk19"><path d="M1190.55,338.9479 C1314.32,347.2879 1537.6736,362.3342 1685.7936,372.3242" fill="none" id="Contracts-to-Geometry" style="stroke:#181818;stroke-width:1;"/><polygon fill="#181818" points="1691.78,372.7279,1683.0696,368.1314,1686.7913,372.3915,1682.5312,376.1132,1691.78,372.7279" style="stroke:#181818;stroke-width:1;"/><text fill="#000000" font-family="sans-serif" font-size="13" lengthAdjust="spacing" textLength="154.1281" x="1344.27" y="344.8849">supplies action geometry</text></g><!--link zkSEC to Admissibility--><g class="link" data-entity-1="ent0004" data-entity-2="ent0010" data-link-type="dependency" data-source-line="39" id="lnk20"><path d="M631.01,404.6079 C727.65,420.7079 873.3817,444.9914 978.4317,462.5014" fill="none" id="zkSEC-to-Admissibility" style="stroke:#181818;stroke-width:1;"/><polygon fill="#181818" points="984.35,463.4879,976.1301,458.0626,979.418,462.6658,974.8148,465.9538,984.35,463.4879" style="stroke:#181818;stroke-width:1;"/><text fill="#000000" font-family="sans-serif" font-size="13" lengthAdjust="spacing" textLength="151.5801" x="690.3" y="407.7449">evaluate transform tuple</text></g><!--link zkSEC to Routing--><g class="link" data-entity-1="ent0004" data-entity-2="ent0011" data-link-type="dependency" data-source-line="40" id="lnk21"><path d="M591.33,428.1479 C612.37,442.6579 637.14,458.6179 660.8,471.1379 C766.88,527.2779 890.9673,570.587 982.2873,598.797" fill="none" id="zkSEC-to-Routing" style="stroke:#181818;stroke-width:1;"/><polygon fill="#181818" points="988.02,600.5679,980.6016,594.0897,983.2427,599.0922,978.2403,601.7334,988.02,600.5679" style="stroke:#181818;stroke-width:1;"/><text fill="#000000" font-family="sans-serif" font-size="13" lengthAdjust="spacing" textLength="208.5462" x="661.8" y="467.0349">compose gate + adapter decisions</text></g><!--link Routing to Execution--><g class="link" data-entity-1="ent0011" data-entity-2="ent0012" data-link-type="dependency" data-source-line="41" id="lnk22"><path d="M1218.7,633.7679 C1353.99,634.5079 1571.9501,635.7049 1708.3801,636.4549" fill="none" id="Routing-to-Execution" style="stroke:#181818;stroke-width:1;"/><polygon fill="#181818" points="1714.38,636.4879,1705.4021,632.4385,1709.3801,636.4604,1705.3581,640.4384,1714.38,636.4879" style="stroke:#181818;stroke-width:1;"/><text fill="#000000" font-family="sans-serif" font-size="13" lengthAdjust="spacing" textLength="169.6241" x="1336.77" y="630.3249">produce execution directive</text></g><!--link Execution to Reporting--><g class="link" data-entity-1="ent0012" data-entity-2="ent0013" data-link-type="dependency" data-source-line="42" id="lnk23"><path d="M1950.65,627.5479 C2095.19,615.7279 2333.07,596.277 2474.66,584.697" fill="none" id="Execution-to-Reporting" style="stroke:#181818;stroke-width:1;"/><polygon fill="#181818" points="2480.64,584.2079,2471.3439,580.9548,2475.6566,584.6155,2471.996,588.9282,2480.64,584.2079" style="stroke:#181818;stroke-width:1;"/><text fill="#000000" font-family="sans-serif" font-size="13" lengthAdjust="spacing" textLength="150.8651" x="2163.12" y="594.6549">command + reason code</text></g><!--link Reporting to AuditStore--><g class="link" data-entity-1="ent0013" data-entity-2="ent0014" data-link-type="dependency" data-source-line="43" id="lnk24"><path d="M2704.54,568.6279 C2793.88,562.1079 2922.35,549.8279 3033.04,528.1379 C3042.73,526.2379 3046.859,525.4319 3056.839,523.0119" fill="none" id="Reporting-to-AuditStore" style="stroke:#181818;stroke-width:1;"/><polygon fill="#181818" points="3062.67,521.5979,3052.9808,519.8315,3057.8108,522.7762,3054.8661,527.6062,3062.67,521.5979" style="stroke:#181818;stroke-width:1;"/><text fill="#000000" font-family="sans-serif" font-size="13" lengthAdjust="spacing" textLength="164.6582" x="2868.04" y="524.0349">deterministic audit records</text></g><!--link DecisionEngine to AuditStore--><g class="link" data-entity-1="ent0007" data-entity-2="ent0014" data-link-type="dependency" data-source-line="45" id="lnk25"><path d="M1212.44,171.6379 C1251.26,166.1279 1295.41,160.3279 1335.77,156.1379 C1424.84,146.8879 1447.27,145.2479 1536.77,142.1379 C1799.43,132.9979 1867.99,104.5879 2128.12,142.1379 C2453.23,189.0579 2525.5,246.9779 2837.04,351.1379 C2918.94,378.5179 3004.6155,410.6697 3073.7155,437.4497" fill="none" id="DecisionEngine-to-AuditStore" style="stroke:#181818;stroke-width:1;"/><polygon fill="#181818" points="3079.31,439.6179,3072.3636,432.6359,3074.6479,437.8111,3069.4727,440.0953,3079.31,439.6179" style="stroke:#181818;stroke-width:1;"/><text fill="#000000" font-family="sans-serif" font-size="13" lengthAdjust="spacing" textLength="87.3601" x="2194.821" y="125.4949">policy receipts</text><text fill="#000000" font-family="sans-serif" font-size="13" lengthAdjust="spacing" textLength="138.7621" x="2169.12" y="143.2009">(boundary/allow/deny)</text></g><!--link Admissibility to AuditStore--><g class="link" data-entity-1="ent0010" data-entity-2="ent0014" data-link-type="dependency" data-source-line="46" id="lnk26"><path d="M1221.97,483.1379 C1585.31,483.1379 2681.36,483.1379 3056.56,483.1379" fill="none" id="Admissibility-to-AuditStore" style="stroke:#181818;stroke-width:1;"/><polygon fill="#181818" points="3062.56,483.1379,3053.56,479.1379,3057.56,483.1379,3053.56,487.1379,3062.56,483.1379" style="stroke:#181818;stroke-width:1;"/><text fill="#000000" font-family="sans-serif" font-size="13" lengthAdjust="spacing" textLength="127.1791" x="2174.7915" y="461.0349">admissibility verdicts</text><text fill="#000000" font-family="sans-serif" font-size="13" lengthAdjust="spacing" textLength="158.5221" x="2159.12" y="478.7409">bridge/detector metadata</text></g><!--link Contracts to AdjacentSystems--><g class="link" data-entity-1="ent0008" data-entity-2="ent0005" data-link-type="dependency" data-source-line="47" id="lnk27"><path d="M1190.55,324.4779 C1324.29,311.0479 1575.32,285.8474 1719.93,271.3274" fill="none" id="Contracts-to-AdjacentSystems" style="stroke:#181818;stroke-width:1;"/><polygon fill="#181818" points="1725.9,270.7279,1716.5454,267.6471,1720.925,271.2274,1717.3447,275.6071,1725.9,270.7279" style="stroke:#181818;stroke-width:1;"/><text fill="#000000" font-family="sans-serif" font-size="13" lengthAdjust="spacing" textLength="153.8031" x="1344.77" y="290.3449">declared action contracts</text></g><!--link zkSEC to Zkperf--><g class="link" data-entity-1="ent0004" data-entity-2="ent0006" data-link-type="dependency" data-source-line="48" id="lnk28"><path d="M560.57,350.0479 C582.38,314.8479 618.39,263.6179 660.8,230.1379 C768.31,145.2479 920.0175,106.4353 1014.9575,89.1053" fill="none" id="zkSEC-to-Zkperf" style="stroke:#181818;stroke-width:1;"/><polygon fill="#181818" points="1020.86,88.0279,1011.288,85.7091,1015.9413,88.9258,1012.7246,93.579,1020.86,88.0279" style="stroke:#181818;stroke-width:1;"/><text fill="#000000" font-family="sans-serif" font-size="13" lengthAdjust="spacing" textLength="133.6661" x="699.307" y="105.5549">no live outbound calls</text><text fill="#000000" font-family="sans-serif" font-size="13" lengthAdjust="spacing" textLength="186.6801" x="672.8" y="123.2609">(reference-only witness traces)</text></g><!--link Admissibility to GMN35--><g class="link" data-entity-1="ent0010" data-entity-2="ent0036" data-link-type="association" data-source-line="59" id="lnk37"><path d="M1222.27,497.0679 C1258.64,501.1779 1298.84,505.5379 1335.77,509.1379 C1436.86,518.9879 1549.69,528.4479 1642.14,535.7879" fill="none" id="Admissibility-GMN35" style="stroke:#181818;stroke-width:1;stroke-dasharray:7,7;"/></g><!--link zkSEC to GMN41--><g class="link" data-entity-1="ent0004" data-entity-2="ent0042" data-link-type="association" data-source-line="67" id="lnk43"><path d="M558.26,428.2079 C579.64,466.8979 616.45,526.0079 660.8,566.1379 C751.23,647.9579 785.4,659.6879 900.8,699.1379 C921.31,706.1479 943.54,711.5779 965.49,715.7779" fill="none" id="zkSEC-GMN41" style="stroke:#181818;stroke-width:1;stroke-dasharray:7,7;"/></g><?plantuml-src dLPDR-Cs4BthLqnpQOpOTR5eBpaK25AZ3T1DsZWvT670e2LQvfeYLPAorodwt_k64YNBY_JGIqAJyyLvRnxrBTt_CFFXf2KLChTLRRqAoXgwrghSXQFalvDRkhSco2-1RYZ7IYWZ7TOAcsuhSkapBRU1WYN73bGe9tEEasNV578BS_fzyRnyUhmsefBJGlhSJKZamJgwugsLYNjN93pnxzvj-UVoPV5nvCQXXIbHyd-xtZyzljmzF2wU_vVt7w-BryN8in11R8H_pp4BAY3gstwvk1-wUkVodGh8sJYO-BqojN2Y8hyJXJqgKz9MQ2_FJeO2_yw8dcrZYdlhkE4_PlzaMTV7frewWVPDwUhNfXA6RBTnDKac7m5J2nMCXXzpqOITTUfD5Yq2yCYwDiVYOTrUehPQvIVoJSHuPQxjTgkvDw2AyioIKWHv5AS9GdGHxehFi3LXUV91LXwnqWxvTWjnziA4sTj-LWliR9IPqflrCo_TGRgpM9_skDCsbiCBEgfWfFUW6Gep9TSzOFnpLzF2b2WHJakPDqw5Kxg6Z0Shise-VF_X0s3pYBKMaQQNkmprUiEj5-w4F4CQ7WG7f_PceiO0n968UqEO69M4rlQebJyxSTBRnkMIdBN1ZqB_8cqbWpiXyhsenKPfhhxiTYzZvuD9xUnMQJaaoNV26Add3bsQWwP16T4wxMI-7sUzAohblMf38VMB4yPlhQj8d9_qiP4C8Y7qp1fzeazFIzeuLPH3OnkZjWhSAYJJthh-05sosfQdhehXGY68V4yxuHZTKN5WFselKLQt8c4AdX2fwhEcoeFG3QYu5YqYbwXs34X-enIBB-09MoD9lux4xjqtZTB5MgR3TQTk1pckLTRMfMhJUYYnznPDeS8Q4QmhcCAjqDpnxXBjOkek3ggG1YJnlB4oZ6SfqRifLGnqiEZKb09M_C-n0dEe90eqc_tK2H6a-xS7tFol1iOOlROpqvw7Kwh5ILjHJB918aR-IIv4szBhg1bhBZ14njHQ65m7S-fpY13AQ3qvndWe4ImXrREu6vqpdtx2OCvLwWEikqdhc9uDDkoH1WSElgbhhQHFyTFqdCKV4VwyfD0pFpGraWmkYNotr3wHCl833s2gAmcYpv8fkmrqkkNAYmQ8zZoWdaNPO1UJ9UwqwIfc_0qw8NpiLo6pmIBUfsSE77ZeNAKCD4Vb5Ab6BTLybbsWyPNpnPW0woI1ywXaa19pccJZ1duLPIGR14KlL9J6LYRcIHO8k0ZMsGimBnwGUATS2zU-LkUSyMS8jKy5Z8qbZPuIO8Z5GoUrvgk0eTBnKBN2rRybSNX0McE1QFlrOhSNnCKx_60EmYcyMxU3X4U-8wEhXERdT6KOgzVdXvbMUud12ZiFwy-uhomoYJDESfagiNUS914tZQwdgl5uGuE052lZCN_zAuF0YOZI7A0JjNmtsmYySSgax3qoP2JWemr_6F98jKB0Rm6wjqE7mMPCMmwEWQMY14I8KTduuVTU0JtPnybtE9_r6Rgh0JU-FWQ5ajvW5Dgst_J2yswgI0-aURG37OmCH-lsSnIQC_xzF79NAUoK9st1cVJLyzqG_Ly0?></g></svg>