<?plantuml 1.2026.2?><svg xmlns="http://www.w3.org/2000/svg" xmlns:xlink="http://www.w3.org/1999/xlink" contentStyleType="text/css" data-diagram-type="DESCRIPTION" height="605px" preserveAspectRatio="none" style="width:1823px;height:605px;background:#FFFFFF;" version="1.1" viewBox="0 0 1823 605" width="1823px" zoomAndPan="magnify"><title>zkSEC Control Architecture, Admissibility, and Route Checks</title><defs/><g><g class="title" data-source-line="1"><text fill="#000000" font-family="sans-serif" font-size="14" font-weight="bold" lengthAdjust="spacing" textLength="417.1984" x="695.9329" y="24.9659">zkSEC Control Architecture, Admissibility, and Route Checks</text></g><!--entity CLI--><g class="entity" data-qualified-name="CLI" data-source-line="12" id="ent0002"><rect fill="#F1F1F1" height="96.2717" rx="2.5" ry="2.5" style="stroke:#181818;stroke-width:0.5;" width="225.8972" x="222.13" y="220.3069"/><text fill="#000000" font-family="sans-serif" font-size="14" lengthAdjust="spacing" textLength="66.4157" x="301.8708" y="245.2729">CLI (cli.py)</text><text fill="#000000" font-family="sans-serif" font-size="14" lengthAdjust="spacing" textLength="73.2897" x="298.4338" y="264.3408">Entry: run()</text><text fill="#000000" font-family="sans-serif" font-size="14" lengthAdjust="spacing" textLength="205.8972" x="232.13" y="283.4087">Args: adapter, action, resource,</text><text fill="#000000" font-family="sans-serif" font-size="14" lengthAdjust="spacing" textLength="191.5473" x="239.305" y="302.4766">request_payload, source, risk</text></g><!--entity ROUTER--><g class="entity" data-qualified-name="ROUTER" data-source-line="13" id="ent0003"><rect fill="#F1F1F1" height="58.1358" rx="2.5" ry="2.5" style="stroke:#181818;stroke-width:0.5;" width="219.0792" x="457.54" y="73.8069"/><text fill="#000000" font-family="sans-serif" font-size="14" lengthAdjust="spacing" textLength="132.1315" x="501.0139" y="98.7729">Routing (routing.py)</text><text fill="#000000" font-family="sans-serif" font-size="14" lengthAdjust="spacing" textLength="199.0792" x="467.54" y="117.8408">Output: RoutedActionDecision</text></g><!--entity ADMISSIBILITY--><g class="entity" data-qualified-name="ADMISSIBILITY" data-source-line="14" id="ent0004"><rect fill="#F1F1F1" height="115.3396" rx="2.5" ry="2.5" style="stroke:#181818;stroke-width:0.5;" width="216.2933" x="1019.93" y="210.7769"/><text fill="#000000" font-family="sans-serif" font-size="14" lengthAdjust="spacing" textLength="196.2933" x="1029.93" y="235.7429">Admissibility (admissibility.py)</text><text fill="#000000" font-family="sans-serif" font-size="14" lengthAdjust="spacing" textLength="103.6696" x="1076.2418" y="254.8108">transform tuple</text><text fill="#000000" font-family="sans-serif" font-size="14" lengthAdjust="spacing" textLength="73.3877" x="1091.3828" y="273.8787">ZOS bridge</text><text fill="#000000" font-family="sans-serif" font-size="14" lengthAdjust="spacing" textLength="104.9716" x="1075.5908" y="292.9466">unified detector</text><text fill="#000000" font-family="sans-serif" font-size="14" lengthAdjust="spacing" textLength="95.8996" x="1080.1268" y="312.0145">attack harness</text></g><!--entity SECURITY--><g class="entity" data-qualified-name="SECURITY" data-source-line="15" id="ent0005"><rect fill="#F1F1F1" height="96.2717" rx="2.5" ry="2.5" style="stroke:#181818;stroke-width:0.5;" width="168.1475" x="483" y="220.3069"/><text fill="#000000" font-family="sans-serif" font-size="14" lengthAdjust="spacing" textLength="135.6455" x="499.251" y="245.2729">Security (security.py)</text><text fill="#000000" font-family="sans-serif" font-size="14" lengthAdjust="spacing" textLength="89.1517" x="522.4979" y="264.3408">assess_action</text><text fill="#000000" font-family="sans-serif" font-size="14" lengthAdjust="spacing" textLength="148.1475" x="493" y="283.4087">assess_data_boundary</text><text fill="#000000" font-family="sans-serif" font-size="14" lengthAdjust="spacing" textLength="89.9496" x="522.0989" y="302.4766">policy_receipt</text></g><!--entity CONTRACTS--><g class="entity" data-qualified-name="CONTRACTS" data-source-line="16" id="ent0006"><rect fill="#F1F1F1" height="77.2038" rx="2.5" ry="2.5" style="stroke:#181818;stroke-width:0.5;" width="216.6572" x="1270.75" y="229.8469"/><text fill="#000000" font-family="sans-serif" font-size="14" lengthAdjust="spacing" textLength="119.5316" x="1319.3128" y="254.8129">Adapter Contracts</text><text fill="#000000" font-family="sans-serif" font-size="14" lengthAdjust="spacing" textLength="88.9137" x="1334.6218" y="273.8808">(contracts.py)</text><text fill="#000000" font-family="sans-serif" font-size="14" lengthAdjust="spacing" textLength="196.6572" x="1280.75" y="292.9487">zos_server | kant_zk_pastebin</text></g><!--entity EXECUTION--><g class="entity" data-qualified-name="EXECUTION" data-source-line="17" id="ent0007"><rect fill="#F1F1F1" height="58.1358" rx="2.5" ry="2.5" style="stroke:#181818;stroke-width:0.5;" width="194.9013" x="387.63" y="395.4169"/><text fill="#000000" font-family="sans-serif" font-size="14" lengthAdjust="spacing" textLength="160.1454" x="405.008" y="420.3829">Execution (execution.py)</text><text fill="#000000" font-family="sans-serif" font-size="14" lengthAdjust="spacing" textLength="174.9013" x="397.63" y="439.4508">AdapterExecutionDirective</text></g><!--entity REPORTING--><g class="entity" data-qualified-name="REPORTING" data-source-line="18" id="ent0008"><rect fill="#F1F1F1" height="58.1358" rx="2.5" ry="2.5" style="stroke:#181818;stroke-width:0.5;" width="179.4034" x="320.37" y="524.8969"/><text fill="#000000" font-family="sans-serif" font-size="14" lengthAdjust="spacing" textLength="159.4034" x="330.37" y="549.8629">Reporting (reporting.py)</text><text fill="#000000" font-family="sans-serif" font-size="14" lengthAdjust="spacing" textLength="153.8314" x="333.156" y="568.9308">execution_audit_record</text></g><!--entity CONTEXT--><g class="entity" data-qualified-name="CONTEXT" data-source-line="19" id="ent0009"><rect fill="#F1F1F1" height="77.2038" rx="2.5" ry="2.5" style="stroke:#181818;stroke-width:0.5;" width="209.2933" x="1148.43" y="64.2669"/><text fill="#000000" font-family="sans-serif" font-size="14" lengthAdjust="spacing" textLength="189.2933" x="1158.43" y="89.2329">Context/Sources (context.py)</text><text fill="#000000" font-family="sans-serif" font-size="14" lengthAdjust="spacing" textLength="168.0693" x="1169.042" y="108.3008">known_adjacent_surfaces</text><text fill="#000000" font-family="sans-serif" font-size="14" lengthAdjust="spacing" textLength="64.8898" x="1220.6318" y="127.3687">invariants</text></g><!--entity PRECONDITION--><g class="entity" data-qualified-name="PRECONDITION" data-source-line="21" id="ent0010"><polygon fill="#F1F1F1" points="575.75,529.8969,585.75,519.8969,748.3995,519.8969,748.3995,578.0328,738.3995,588.0328,575.75,588.0328,575.75,529.8969" style="stroke:#181818;stroke-width:0.5;"/><line style="stroke:#181818;stroke-width:0.5;" x1="738.3995" x2="748.3995" y1="529.8969" y2="519.8969"/><line style="stroke:#181818;stroke-width:0.5;" x1="575.75" x2="738.3995" y1="529.8969" y2="529.8969"/><line style="stroke:#181818;stroke-width:0.5;" x1="738.3995" x2="738.3995" y1="529.8969" y2="588.0328"/><text fill="#000000" font-family="sans-serif" font-size="14" lengthAdjust="spacing" textLength="132.6495" x="590.75" y="554.8629">policy preconditions</text><text fill="#000000" font-family="sans-serif" font-size="14" lengthAdjust="spacing" textLength="96.7676" x="608.6909" y="573.9308">readiness gate</text></g><g class="entity" data-qualified-name="GMN24" data-source-line="40" id="ent0025"><path d="M757.41,201.4769 L757.41,264.3769 L651.35,268.3769 L757.41,272.3769 L757.41,335.419 A0,0 0 0 0 757.41,335.419 L984.7462,335.419 A0,0 0 0 0 984.7462,335.419 L984.7462,211.4769 L974.7462,201.4769 L757.41,201.4769 A0,0 0 0 0 757.41,201.4769" fill="#FEFFDD" style="stroke:#181818;stroke-width:0.5;"/><path d="M974.7462,201.4769 L974.7462,211.4769 L984.7462,211.4769 L974.7462,201.4769" fill="#FEFFDD" style="stroke:#181818;stroke-width:0.5;"/><text fill="#000000" font-family="sans-serif" font-size="13" lengthAdjust="spacing" textLength="206.3362" x="763.41" y="220.3739">Decision reasons fed into routing:</text><text fill="#000000" font-family="sans-serif" font-size="13" lengthAdjust="spacing" textLength="107.9781" x="812.589" y="238.0799">- unknown_action</text><text fill="#000000" font-family="sans-serif" font-size="13" lengthAdjust="spacing" textLength="186.7452" x="773.2055" y="255.786">- proposal_from_public_source</text><text fill="#000000" font-family="sans-serif" font-size="13" lengthAdjust="spacing" textLength="143.0781" x="795.039" y="273.492">- requires_confirmation</text><text fill="#000000" font-family="sans-serif" font-size="13" lengthAdjust="spacing" textLength="191.4772" x="770.8395" y="291.198">- resource_scope_uri_forbidden</text><text fill="#000000" font-family="sans-serif" font-size="13" lengthAdjust="spacing" textLength="199.1602" x="766.998" y="308.904">- resource_scope_out_of_bounds</text><text fill="#000000" font-family="sans-serif" font-size="13" lengthAdjust="spacing" textLength="160.7581" x="786.199" y="326.61">- secret_material_detected</text></g><g class="entity" data-qualified-name="GMN27" data-source-line="50" id="ent0028"><path d="M1522.09,201.4769 L1522.09,216.3769 L1236.58,220.3769 L1522.09,224.3769 L1522.09,335.419 A0,0 0 0 0 1522.09,335.419 L1816.0642,335.419 A0,0 0 0 0 1816.0642,335.419 L1816.0642,211.4769 L1806.0642,201.4769 L1522.09,201.4769 A0,0 0 0 0 1522.09,201.4769" fill="#FEFFDD" style="stroke:#181818;stroke-width:0.5;"/><path d="M1806.0642,201.4769 L1806.0642,211.4769 L1816.0642,211.4769 L1806.0642,201.4769" fill="#FEFFDD" style="stroke:#181818;stroke-width:0.5;"/><text fill="#000000" font-family="sans-serif" font-size="13" lengthAdjust="spacing" textLength="272.9742" x="1528.09" y="220.3739">Transform surfaces evaluated before READY:</text><text fill="#000000" font-family="sans-serif" font-size="13" lengthAdjust="spacing" textLength="41.613" x="1643.7706" y="238.0799">- F_cap</text><text fill="#000000" font-family="sans-serif" font-size="13" lengthAdjust="spacing" textLength="68.4061" x="1630.3741" y="255.786">- F_channel</text><text fill="#000000" font-family="sans-serif" font-size="13" lengthAdjust="spacing" textLength="50.752" x="1639.2011" y="273.492">- F_delta</text><text fill="#000000" font-family="sans-serif" font-size="13" lengthAdjust="spacing" textLength="48.5421" x="1640.3061" y="291.198">- F_onto</text><text fill="#000000" font-family="sans-serif" font-size="13" lengthAdjust="spacing" textLength="163.1242" x="1583.015" y="308.904">- ZOS proposal-only bridge</text><text fill="#000000" font-family="sans-serif" font-size="13" lengthAdjust="spacing" textLength="188.6172" x="1570.2685" y="326.61">- multi-step attack-chain replay</text></g><g class="entity" data-qualified-name="GMN30" data-source-line="60" id="ent0031"><path d="M783.58,513.5569 L783.58,550.3769 L748.89,554.3769 L783.58,558.3769 L783.58,594.381 A0,0 0 0 0 783.58,594.381 L1068.5712,594.381 A0,0 0 0 0 1068.5712,594.381 L1068.5712,523.5569 L1058.5712,513.5569 L783.58,513.5569 A0,0 0 0 0 783.58,513.5569" fill="#FEFFDD" style="stroke:#181818;stroke-width:0.5;"/><path d="M1058.5712,513.5569 L1058.5712,523.5569 L1068.5712,523.5569 L1058.5712,513.5569" fill="#FEFFDD" style="stroke:#181818;stroke-width:0.5;"/><text fill="#000000" font-family="sans-serif" font-size="13" lengthAdjust="spacing" textLength="263.9912" x="789.58" y="532.4539">These checks are hard gates before READY:</text><text fill="#000000" font-family="sans-serif" font-size="13" lengthAdjust="spacing" textLength="106.9121" x="868.1196" y="550.1599">- deny =&gt; blocked</text><text fill="#000000" font-family="sans-serif" font-size="13" lengthAdjust="spacing" textLength="262.0802" x="790.5355" y="567.866">- requires_confirmation =&gt; operator review</text><text fill="#000000" font-family="sans-serif" font-size="13" lengthAdjust="spacing" textLength="225.5762" x="808.7875" y="585.572">- allow + preconditions pass =&gt; ready</text></g><!--link CLI to ROUTER--><g class="link" data-entity-1="ent0002" data-entity-2="ent0003" data-link-type="dependency" data-source-line="23" id="lnk11"><path d="M448.36,252.3769 C459.07,252.3769 466.03,252.3769 466.03,252.3769 C466.03,252.3769 466.03,181.9769 466.03,138.4069" fill="none" id="CLI-to-ROUTER" style="stroke:#181818;stroke-width:1;"/><polygon fill="#181818" points="466.03,132.4069,462.03,141.4069,466.03,137.4069,470.03,141.4069,466.03,132.4069" style="stroke:#181818;stroke-width:1;"/><text fill="#000000" font-family="sans-serif" font-size="13" lengthAdjust="spacing" textLength="156.7281" x="309.03" y="197.1239">evaluate_adapter_action()</text></g><!--link ROUTER to CLI--><g class="link" data-entity-1="ent0003" data-entity-2="ent0002" data-link-type="dependency" data-source-line="30" id="lnk17"><path d="M474.51,132.4369 C474.51,183.8669 474.51,284.3769 474.51,284.3769 C474.51,284.3769 469.79,284.3769 454.29,284.3769" fill="none" id="ROUTER-to-CLI" style="stroke:#181818;stroke-width:1;"/><polygon fill="#181818" points="448.29,284.3769,457.29,288.3769,453.29,284.3769,457.29,280.3769,448.29,284.3769" style="stroke:#181818;stroke-width:1;"/><text fill="#000000" font-family="sans-serif" font-size="13" lengthAdjust="spacing" textLength="134.3941" x="544.384" y="181.4139">RoutedActionDecision</text><text fill="#000000" font-family="sans-serif" font-size="13" lengthAdjust="spacing" textLength="272.1422" x="475.51" y="199.1199">status = deny / requires_confirmation / allow</text><text fill="#000000" font-family="sans-serif" font-size="13" lengthAdjust="spacing" textLength="77.3241" x="572.9191" y="216.826">reason_code</text></g><!--link ROUTER to SECURITY--><g class="link" data-entity-1="ent0003" data-entity-2="ent0005" data-link-type="dependency" data-source-line="24" id="lnk12"><path d="M539.05,132.0969 C539.05,156.4169 539.05,185.5469 539.05,214.0669" fill="none" id="ROUTER-to-SECURITY" style="stroke:#181818;stroke-width:1;"/><polygon fill="#181818" points="539.05,220.0669,543.05,211.0669,539.05,215.0669,535.05,211.0669,539.05,220.0669" style="stroke:#181818;stroke-width:1;"/><text fill="#000000" font-family="sans-serif" font-size="13" lengthAdjust="spacing" textLength="90.5841" x="448.05" y="171.9739">assess_action()</text></g><!--link ROUTER to SECURITY--><g class="link" data-entity-1="ent0003" data-entity-2="ent0005" data-link-type="dependency" data-source-line="25" id="lnk13"><path d="M595.1,132.0969 C595.1,156.4169 595.1,185.5469 595.1,214.0669" fill="none" id="ROUTER-to-SECURITY-1" style="stroke:#181818;stroke-width:1;"/><polygon fill="#181818" points="595.1,220.0669,599.1,211.0669,595.1,215.0669,591.1,211.0669,595.1,220.0669" style="stroke:#181818;stroke-width:1;"/><text fill="#000000" font-family="sans-serif" font-size="13" lengthAdjust="spacing" textLength="397.1893" x="596.1" y="190.9739">assess_data_boundary(action, resource, payload, resource_roots)</text></g><!--link ROUTER to CONTRACTS--><g class="link" data-entity-1="ent0003" data-entity-2="ent0006" data-link-type="dependency" data-source-line="26" id="lnk14"><path d="M668.13,132.3269 C668.13,150.8869 668.13,171.3769 668.13,171.3769 C668.13,171.3769 1299.74,171.3769 1299.74,171.3769 C1299.74,171.3769 1299.74,196.5169 1299.74,223.5269" fill="none" id="ROUTER-to-CONTRACTS" style="stroke:#181818;stroke-width:1;"/><polygon fill="#181818" points="1299.74,229.5269,1303.74,220.5269,1299.74,224.5269,1295.74,220.5269,1299.74,229.5269" style="stroke:#181818;stroke-width:1;"/><text fill="#000000" font-family="sans-serif" font-size="13" lengthAdjust="spacing" textLength="111.3971" x="835.4675" y="149.2739">_resolve_adapter()</text><text fill="#000000" font-family="sans-serif" font-size="13" lengthAdjust="spacing" textLength="203.3722" x="789.48" y="166.9799">validate_action_against_adapter()</text></g><!--link ROUTER to ADMISSIBILITY--><g class="link" data-entity-1="ent0003" data-entity-2="ent0004" data-link-type="dependency" data-source-line="27" id="lnk15"><path d="M677.06,102.3769 C828.89,102.3769 1084.18,102.3769 1084.18,102.3769 C1084.18,102.3769 1084.18,156.4769 1084.18,204.3669" fill="none" id="ROUTER-to-ADMISSIBILITY" style="stroke:#181818;stroke-width:1;"/><polygon fill="#181818" points="1084.18,210.3669,1088.18,201.3669,1084.18,205.3669,1080.18,201.3669,1084.18,210.3669" style="stroke:#181818;stroke-width:1;"/><text fill="#000000" font-family="sans-serif" font-size="13" lengthAdjust="spacing" textLength="208.7412" x="725.61" y="62.2739">evaluate_transform_admissibility()</text><text fill="#000000" font-family="sans-serif" font-size="13" lengthAdjust="spacing" textLength="133.5491" x="763.206" y="79.9799">bridge_zos_proposal()</text><text fill="#000000" font-family="sans-serif" font-size="13" lengthAdjust="spacing" textLength="165.3731" x="747.294" y="97.686">evaluate_unified_detector()</text></g><!--link ROUTER to PRECONDITION--><g class="link" data-entity-1="ent0003" data-entity-2="ent0010" data-link-type="dependency" data-source-line="28" id="lnk16"><path d="M659.64,132.1269 C659.64,212.0669 659.64,427.9769 659.64,513.6269" fill="none" id="ROUTER-to-PRECONDITION" style="stroke:#181818;stroke-width:1;"/><polygon fill="#181818" points="659.64,519.6269,663.64,510.6269,659.64,514.6269,655.64,510.6269,659.64,519.6269" style="stroke:#181818;stroke-width:1;"/><text fill="#000000" font-family="sans-serif" font-size="13" lengthAdjust="spacing" textLength="83.5251" x="561.161" y="340.7739">policy_receipt</text><text fill="#000000" font-family="sans-serif" font-size="13" lengthAdjust="spacing" textLength="112.5671" x="546.64" y="358.4799">(reason_code trail)</text></g><!--link CLI to EXECUTION--><g class="link" data-entity-1="ent0002" data-entity-2="ent0007" data-link-type="dependency" data-source-line="31" id="lnk18"><path d="M417.83,316.9669 C417.83,342.5469 417.83,367.0969 417.83,389.0869" fill="none" id="CLI-to-EXECUTION" style="stroke:#181818;stroke-width:1;"/><polygon fill="#181818" points="417.83,395.0869,421.83,386.0869,417.83,390.0869,413.83,386.0869,417.83,395.0869" style="stroke:#181818;stroke-width:1;"/><text fill="#000000" font-family="sans-serif" font-size="13" lengthAdjust="spacing" textLength="349.7134" x="67.83" y="351.9239">build_execution_directive(routed, operator, environment)</text></g><!--link EXECUTION to PRECONDITION--><g class="link" data-entity-1="ent0007" data-entity-2="ent0010" data-link-type="dependency" data-source-line="32" id="lnk19"><path d="M582.91,424.3769 C602.31,424.3769 616.84,424.3769 616.84,424.3769 C616.84,424.3769 616.84,475.1869 616.84,513.5769" fill="none" id="EXECUTION-to-PRECONDITION" style="stroke:#181818;stroke-width:1;"/><polygon fill="#181818" points="616.84,519.5769,620.84,510.5769,616.84,514.5769,612.84,510.5769,616.84,519.5769" style="stroke:#181818;stroke-width:1;"/><text fill="#000000" font-family="sans-serif" font-size="13" lengthAdjust="spacing" textLength="95.3291" x="698.3426" y="397.9039">if status==allow</text><text fill="#000000" font-family="sans-serif" font-size="13" lengthAdjust="spacing" textLength="237.4582" x="630.658" y="415.6099">and action in {deploy,patch,remediate}</text><text fill="#000000" font-family="sans-serif" font-size="13" lengthAdjust="spacing" textLength="245.1542" x="626.81" y="433.316">require actor_identity + scope + plan_ref</text><text fill="#000000" font-family="sans-serif" font-size="13" lengthAdjust="spacing" textLength="249.5742" x="624.6" y="451.022">=&gt; execution_receipt_precondition_failed</text></g><!--link EXECUTION to REPORTING--><g class="link" data-entity-1="ent0007" data-entity-2="ent0008" data-link-type="dependency" data-source-line="33" id="lnk20"><path d="M443.7,453.8669 C443.7,475.0569 443.7,497.5369 443.7,518.6969" fill="none" id="EXECUTION-to-REPORTING" style="stroke:#181818;stroke-width:1;"/><polygon fill="#181818" points="443.7,524.6969,447.7,515.6969,443.7,519.6969,439.7,515.6969,443.7,524.6969" style="stroke:#181818;stroke-width:1;"/><text fill="#000000" font-family="sans-serif" font-size="13" lengthAdjust="spacing" textLength="263.5623" x="179.7" y="485.1839">execution_audit_record(operator, directive)</text></g><!--link REPORTING to CLI--><g class="link" data-entity-1="ent0008" data-entity-2="ent0002" data-link-type="dependency" data-source-line="34" id="lnk21"><path d="M354,524.4869 C354,475.3969 354,382.4569 354,322.9669" fill="none" id="REPORTING-to-CLI" style="stroke:#181818;stroke-width:1;"/><polygon fill="#181818" points="354,316.9669,350,325.9669,354,321.9669,358,325.9669,354,316.9669" style="stroke:#181818;stroke-width:1;"/><text fill="#000000" font-family="sans-serif" font-size="13" lengthAdjust="spacing" textLength="142.8441" x="108.8551" y="398.6239">execution_audit_record</text><text fill="#000000" font-family="sans-serif" font-size="13" lengthAdjust="spacing" textLength="346.5543" x="7" y="416.3299">adapter/action/execution_status/reason_code/command</text></g><!--link CONTEXT to CONTRACTS--><g class="link" data-entity-1="ent0009" data-entity-2="ent0006" data-link-type="dependency" data-source-line="36" id="lnk22"><path d="M1328.73,141.6969 C1328.73,168.1669 1328.73,197.0969 1328.73,223.5869" fill="none" id="CONTEXT-to-CONTRACTS" style="stroke:#181818;stroke-width:1;"/><polygon fill="#181818" points="1328.73,229.5869,1332.73,220.5869,1328.73,224.5869,1324.73,220.5869,1328.73,229.5869" style="stroke:#181818;stroke-width:1;"/><text fill="#000000" font-family="sans-serif" font-size="13" lengthAdjust="spacing" textLength="106.8081" x="1215.0025" y="163.5339">adjacent surfaces</text><text fill="#000000" font-family="sans-serif" font-size="13" lengthAdjust="spacing" textLength="119.3531" x="1208.73" y="181.2399">and trust invariants</text></g><!--link CONTEXT to ADMISSIBILITY--><g class="link" data-entity-1="ent0009" data-entity-2="ent0004" data-link-type="dependency" data-source-line="37" id="lnk23"><path d="M1192.33,141.6969 C1192.33,162.1469 1192.33,181.6469 1192.33,204.3969" fill="none" id="CONTEXT-to-ADMISSIBILITY" style="stroke:#181818;stroke-width:1;"/><polygon fill="#181818" points="1192.33,210.3969,1196.33,201.3969,1192.33,205.3969,1188.33,201.3969,1192.33,210.3969" style="stroke:#181818;stroke-width:1;"/><text fill="#000000" font-family="sans-serif" font-size="13" lengthAdjust="spacing" textLength="191.8542" x="1000.33" y="153.9439">proposal-only semantic context</text><text fill="#000000" font-family="sans-serif" font-size="13" lengthAdjust="spacing" textLength="151.0601" x="1020.727" y="171.6499">and ontology vocabulary</text></g><?plantuml-src XLPTZnet57tdLrpbYLMXA7rSQIDHbbH8wMu4H4eg9CkC3RWOUsfxIDWq_xt7zimmixjHN-3E-Ff-ddFl11MqfAVZQZwZcJN1MKrJLnnKa4Med1pHL9oKzsghj0gN4N4ZQ6ch86bsaCNH3mR-g4p97J-HLaQ6Iod9kd2mdGCXTxpIOIs_XQbMUtEI9b217-awMeKzbTR4e-y3elU8PgMU9BtzRV2ZeyMBeCu8vPdIMoWD78BcPe-Ctim-B6XOQFLhURdPc3aokzoIgymGJrEtzxV41IyHm2XPj6P4JdfRkKAEDiR9Vohf0olvHLikHbIVa5F--8Qu9zZlkeibKMPFGvU5xFQn2cKLRdF1n3JvkPU5ylXFLfQFdzRpPTTGhzmqvDt7R3GuRlpEkXE5gjHoO_vwND7MAR67N1crKrAWuh61rcqC3u4NHpfmPwJtoUlq_i_5QhNuVV5XiVxITRwIHUMINrzBsINt7dTPBbJxA7ZWR6ih8xYxR4nfjIek3EQaAaDo15HzMZxpCSrbpsY3HRynmwAHixidwvcNxWojV-d8JM1FHxJ21xbLkMwpnuVrSZfRhxgMvzyGT8oGXh8Hiy7QPwjmh-8rTPR9sFmpmbml7Xzw3PKbK9nRseZPM6kRyKge41EsJkHspZy-BjUBXpzwI4Ho0FvabI3aAMMB5zdQqTYli2J-vf4Fp5Tk1mb5KURCdKBoliru_daz61WhO3GNcyhet20AXECZRBbGiSsqvo4dzt4vnzNxHSfl45an7h-hSKUt9CzSLz1bDHlg7Wzl1hLAr6xQ2FqU4lvFgmUGuGkQKSkkvXLprWRVizfs6cPPrDFdDjZ8PSIlH4gWo3tPSsN0t5QbQwm7_6xsBQTOZt3HGMOMYvWidIsjvpg-Rg_MZ6CDu_eUk-M7mpv7W7nqp2Fg8ZOLGIXzC-XbZtwzFZusI9A7ojCTk6ukDA4uiu1h3sDcfzo99ofCY6jjloPiD9vQ6BJ8XvDjfRHWLt2BXYDff4bqoPRISMGu8cdEojaqncy6LoEl9AnsbEEykwlZeBH2ShT86VekPAdjPLJoK1n6JfwaKAZhZwXPfnIrhMCAYOOudNuXNo0O_9UQ6rHp5vNltj4r-hh2h4iGjaDzfNWMSClPY8TNgJsy9juM1KrkxrqRzVfz3CmCnadEUd9LoxMPT7epmHOyeKBWQcRy2nOqiuAkio9MDBZA1xfEZTxzvy1la3osHb_8ItWCgg1wCcM3aAss-mkTRS6tbGQ7u_J1vdTgVmXaTzVvtg2ISYQUTjX12WQeteUtWp5LpR1BLS2B9WgsS_R4oceBSh0y2N3wAfxJ-tfO910mh2a6vcwL03nU7iCzixiyXJoEiTYS30pM9EgaQze25H8fn-oUvzXVbkjs-JRLRuU8eAt4YGIYflTVOiBlMS7B_7_WnaYTP25ru4cA5OOGztU_8NdcuEY4hoOrnk8hAU_nCIofM6OW__BJc7j3VtsGNbAHljQ88pvy2eYq8FoBYDCe0P6ssXP75EKdNOWg3IcWSLRoArGJmICfkqi9Gnxh2FfnDtKY_Wy0?></g></svg>